<svg xmlns="http://www.w3.org/2000/svg" x="0px" y="0px" width="100" height="100" viewBox="0,0,256,256">
<defs><radialGradient cx="36.833" cy="35.917" r="26" gradientUnits="userSpaceOnUse" id="color-1_119695_gr1"><stop offset="0" stop-color="#afeeff"></stop><stop offset="0.193" stop-color="#bbf1ff"></stop><stop offset="0.703" stop-color="#d7f8ff"></stop><stop offset="1" stop-color="#e1faff"></stop></radialGradient><radialGradient cx="31.417" cy="29.917" r="28.77" gradientUnits="userSpaceOnUse" id="color-2_119695_gr2"><stop offset="0" stop-color="#afeeff"></stop><stop offset="0.193" stop-color="#bbf1ff"></stop><stop offset="0.703" stop-color="#d7f8ff"></stop><stop offset="1" stop-color="#e1faff"></stop></radialGradient><radialGradient cx="32.5" cy="32" r="30.775" gradientUnits="userSpaceOnUse" id="color-3_119695_gr3"><stop offset="0" stop-color="#afeeff"></stop><stop offset="0.193" stop-color="#bbf1ff"></stop><stop offset="0.703" stop-color="#d7f8ff"></stop><stop offset="1" stop-color="#e1faff"></stop></radialGradient><radialGradient cx="35.917" cy="35.417" r="27.938" gradientUnits="userSpaceOnUse" id="color-4_119695_gr4"><stop offset="0" stop-color="#afeeff"></stop><stop offset="0.193" stop-color="#bbf1ff"></stop><stop offset="0.703" stop-color="#d7f8ff"></stop><stop offset="1" stop-color="#e1faff"></stop></radialGradient><linearGradient x1="32" y1="6" x2="32" y2="29" gradientUnits="userSpaceOnUse" id="color-5_119695_gr5"><stop offset="0" stop-color="#a4a4a4"></stop><stop offset="0.63" stop-color="#7f7f7f"></stop><stop offset="1" stop-color="#6f6f6f"></stop><stop offset="1" stop-color="#6f6f6f"></stop></linearGradient><linearGradient x1="32" y1="25" x2="32" y2="57" gradientUnits="userSpaceOnUse" id="color-6_119695_gr6"><stop offset="0" stop-color="#42d778"></stop><stop offset="0.428" stop-color="#3dca76"></stop><stop offset="1" stop-color="#34b171"></stop></linearGradient><linearGradient x1="44.5" y1="57" x2="44.5" y2="32.367" gradientUnits="userSpaceOnUse" id="color-7_119695_gr7"><stop offset="0" stop-color="#37ab6a"></stop><stop offset="0.422" stop-color="#39b66f"></stop><stop offset="1" stop-color="#3ac074"></stop></linearGradient><linearGradient x1="19.5" y1="29.262" x2="19.5" y2="55.596" gradientUnits="userSpaceOnUse" id="color-8_119695_gr8"><stop offset="0" stop-color="#62de8f"></stop><stop offset="0.478" stop-color="#5dd18d"></stop><stop offset="1" stop-color="#56be89"></stop></linearGradient></defs><g fill-opacity="0" fill="#dddddd" fill-rule="nonzero" stroke="none" stroke-width="1" stroke-linecap="butt" stroke-linejoin="miter" stroke-miterlimit="10" stroke-dasharray="" stroke-dashoffset="0" font-family="none" font-weight="none" font-size="none" text-anchor="none" style="mix-blend-mode: normal"><path d="M0,256v-256h256v256z" id="bgRectangle"></path></g><g fill="none" fill-rule="nonzero" stroke="none" stroke-width="1" stroke-linecap="butt" stroke-linejoin="miter" stroke-miterlimit="10" stroke-dasharray="" stroke-dashoffset="0" font-family="none" font-weight="none" font-size="none" text-anchor="none" style="mix-blend-mode: normal"><g transform="scale(4,4)"><path d="M10,8v0c2.209,0 4,-1.791 4,-4v0c0,-2.209 -1.791,-4 -4,-4v0c-2.209,0 -4,1.791 -4,4v0c0,2.209 1.791,4 4,4z" fill="url(#color-1_119695_gr1)"></path><path d="M7.5,64v0c1.933,0 3.5,-1.567 3.5,-3.5v0c0,-1.933 -1.567,-3.5 -3.5,-3.5v0c-1.933,0 -3.5,1.567 -3.5,3.5v0c0,1.933 1.567,3.5 3.5,3.5z" fill="url(#color-2_119695_gr2)"></path><path d="M62,20.5v0c0,-2.485 -2.015,-4.5 -4.5,-4.5h-13.5c-2.209,0 -4,-1.791 -4,-4v0c0,-2.209 1.791,-4 4,-4h2c2.209,0 4,-1.791 4,-4v0c0,-2.209 -1.791,-4 -4,-4h-24c-2.209,0 -4,1.791 -4,4v0c0,2.209 1.791,4 4,4h2c1.657,0 3,1.343 3,3v0c0,1.657 -1.343,3 -3,3h-13.5c-1.933,0 -3.5,1.567 -3.5,3.5v0c0,1.933 1.567,3.5 3.5,3.5h2.5c1.657,0 3,1.343 3,3v0c0,1.657 -1.343,3 -3,3h-5c-2.761,0 -5,2.239 -5,5v0c0,2.761 2.239,5 5,5h5.5c1.933,0 3.5,1.567 3.5,3.5v0c0,1.933 -1.567,3.5 -3.5,3.5h-4.5c-2.209,0 -4,1.791 -4,4v0c0,2.209 1.791,4 4,4h8.5c1.381,0 2.5,1.119 2.5,2.5v0c0,1.381 -1.119,2.5 -2.5,2.5v0c-1.933,0 -3.5,1.567 -3.5,3.5v0c0,1.933 1.567,3.5 3.5,3.5h30c1.933,0 3.5,-1.567 3.5,-3.5v0c0,-1.933 -1.567,-3.5 -3.5,-3.5h-0.5c-1.105,0 -2,-0.895 -2,-2v0c0,-1.105 0.895,-2 2,-2h7c2.209,0 4,-1.791 4,-4v0c0,-2.209 -1.791,-4 -4,-4h-6.5c-1.381,0 -2.5,-1.119 -2.5,-2.5v0c0,-1.381 1.119,-2.5 2.5,-2.5h0.5c2.209,0 4,-1.791 4,-4v0c0,-2.209 -1.791,-4 -4,-4h-1.5c-1.933,0 -3.5,-1.567 -3.5,-3.5v0c0,-1.933 1.567,-3.5 3.5,-3.5h11c2.485,0 4.5,-2.015 4.5,-4.5z" fill="url(#color-3_119695_gr3)"></path><path d="M59,40v0c-2.209,0 -4,-1.791 -4,-4v0c0,-2.209 1.791,-4 4,-4v0c2.209,0 4,1.791 4,4v0c0,2.209 -1.791,4 -4,4z" fill="url(#color-4_119695_gr4)"></path><path d="M32,6c-7.18,0 -13,5.82 -13,13v10h5v-10c0,-4.411 3.589,-8 8,-8c4.411,0 8,3.589 8,8v10h5v-10c0,-7.18 -5.82,-13 -13,-13z" fill="url(#color-5_119695_gr5)"></path><path d="M49,57h-34c-1.657,0 -3,-1.343 -3,-3v-19c0,-5.523 4.477,-10 10,-10h20c5.523,0 10,4.477 10,10v19c0,1.657 -1.343,3 -3,3z" fill="url(#color-6_119695_gr6)"></path><path d="M41,43v0c0,1.657 1.343,3 3,3h0.5c1.381,0 2.5,1.119 2.5,2.5v0c0,1.381 -1.119,2.5 -2.5,2.5h-4.5c-1.657,0 -3,1.343 -3,3v0c0,1.657 1.343,3 3,3h9c1.657,0 3,-1.343 3,-3v-14h-8c-1.657,0 -3,1.343 -3,3z" fill="url(#color-7_119695_gr7)"></path><path d="M23,37.5v0c0,-1.381 -1.119,-2.5 -2.5,-2.5h-1c-1.381,0 -2.5,-1.119 -2.5,-2.5v0c0,-1.381 1.119,-2.5 2.5,-2.5h5c1.381,0 2.5,-1.119 2.5,-2.5v0c0,-1.381 -1.119,-2.5 -2.5,-2.5h-2.5c-5.523,0 -10,4.477 -10,10v5h8.5c1.381,0 2.5,-1.119 2.5,-2.5z" fill="url(#color-8_119695_gr8)"></path><g fill="#ffffff"><path d="M32,38c-1.65685,0 -3,1.34315 -3,3c0,1.65685 1.34315,3 3,3c1.65685,0 3,-1.34315 3,-3c0,-1.65685 -1.34315,-3 -3,-3zM42,38c-1.65685,0 -3,1.34315 -3,3c0,1.65685 1.34315,3 3,3c1.65685,0 3,-1.34315 3,-3c0,-1.65685 -1.34315,-3 -3,-3zM22,38c-1.65685,0 -3,1.34315 -3,3c0,1.65685 1.34315,3 3,3c1.65685,0 3,-1.34315 3,-3c0,-1.65685 -1.34315,-3 -3,-3z"></path></g></g></g>
</svg>